REM DIRINDEX 1\2,1\4,1\5,1\6,1\7,1\3\8,1\3\9,1\3\10
REM DIRNAME cjc113,folder01,folder02,folder03,folder04,folder05,folder06,folder07,folder08,folder09
TITLE ""
FILE "DB4500_5th_2A_46.mp3" MP3
  TRACK 01 AUDIO
    TITLE "0:"
    INDEX 01 00:00:00
  TRACK 02 AUDIO
    TITLE "8:cjc113_1713"
    INDEX 01 00:00:01
  TRACK 03 AUDIO
    TITLE "0:"
    INDEX 01 00:01:17
  TRACK 04 AUDIO
    TITLE "9:cjc113_1714"
    INDEX 01 00:01:40
  TRACK 05 AUDIO
    TITLE "0:"
    INDEX 01 00:02:47
  TRACK 06 AUDIO
    TITLE "10:cjc113_1715"
    INDEX 01 00:02:69
  TRACK 07 AUDIO
    TITLE "0:"
    INDEX 01 00:05:67
  TRACK 08 AUDIO
    TITLE "8:cjc113_1716"
    INDEX 01 00:06:37
  TRACK 09 AUDIO
    TITLE "0:"
    INDEX 01 00:07:41
  TRACK 10 AUDIO
    TITLE "9:cjc113_1717"
    INDEX 01 00:07:62
  TRACK 11 AUDIO
    TITLE "0:"
    INDEX 01 00:08:73
  TRACK 12 AUDIO
    TITLE "10:cjc113_1718"
    INDEX 01 00:09:18
  TRACK 13 AUDIO
    TITLE "0:"
    INDEX 01 00:12:73
  TRACK 14 AUDIO
    TITLE "8:cjc113_1719"
    INDEX 01 00:13:43
  TRACK 15 AUDIO
    TITLE "0:"
    INDEX 01 00:14:66
  TRACK 16 AUDIO
    TITLE "9:cjc113_1720"
    INDEX 01 00:15:11
  TRACK 17 AUDIO
    TITLE "0:"
    INDEX 01 00:16:55
  TRACK 18 AUDIO
    TITLE "10:cjc113_1721"
    INDEX 01 00:17:00
  TRACK 19 AUDIO
    TITLE "0:"
    INDEX 01 00:20:59
  TRACK 20 AUDIO
    TITLE "8:cjc113_1722"
    INDEX 01 00:21:29
  TRACK 21 AUDIO
    TITLE "0:"
    INDEX 01 00:22:40
  TRACK 22 AUDIO
    TITLE "9:cjc113_1723"
    INDEX 01 00:22:62
  TRACK 23 AUDIO
    TITLE "0:"
    INDEX 01 00:24:25
  TRACK 24 AUDIO
    TITLE "10:cjc113_1724"
    INDEX 01 00:24:47
  TRACK 25 AUDIO
    TITLE "0:"
    INDEX 01 00:28:12
  TRACK 26 AUDIO
    TITLE "8:cjc113_1725"
    INDEX 01 00:28:53
  TRACK 27 AUDIO
    TITLE "0:"
    INDEX 01 00:29:68
  TRACK 28 AUDIO
    TITLE "9:cjc113_1726"
    INDEX 01 00:30:12
  TRACK 29 AUDIO
    TITLE "0:"
    INDEX 01 00:31:65
  TRACK 30 AUDIO
    TITLE "10:cjc113_1727"
    INDEX 01 00:32:11
  TRACK 31 AUDIO
    TITLE "0:"
    INDEX 01 00:34:71
  TRACK 32 AUDIO
    TITLE "8:cjc113_1728"
    INDEX 01 00:35:43
  TRACK 33 AUDIO
    TITLE "0:"
    INDEX 01 00:36:68
  TRACK 34 AUDIO
    TITLE "9:cjc113_1729"
    INDEX 01 00:37:14
  TRACK 35 AUDIO
    TITLE "0:"
    INDEX 01 00:39:17
  TRACK 36 AUDIO
    TITLE "10:cjc113_1730"
    INDEX 01 00:39:37
  TRACK 37 AUDIO
    TITLE "0:"
    INDEX 01 00:42:59
  TRACK 38 AUDIO
    TITLE "8:cjc113_1731"
    INDEX 01 00:43:33
  TRACK 39 AUDIO
    TITLE "0:"
    INDEX 01 00:44:46
  TRACK 40 AUDIO
    TITLE "9:cjc113_1732"
    INDEX 01 00:44:69
  TRACK 41 AUDIO
    TITLE "0:"
    INDEX 01 00:46:35
  TRACK 42 AUDIO
    TITLE "10:cjc113_1733"
    INDEX 01 00:46:60
  TRACK 43 AUDIO
    TITLE "0:"
    INDEX 01 00:49:69
  TRACK 44 AUDIO
    TITLE "8:cjc113_1734"
    INDEX 01 00:50:42
  TRACK 45 AUDIO
    TITLE "0:"
    INDEX 01 00:51:50
  TRACK 46 AUDIO
    TITLE "9:cjc113_1735"
    INDEX 01 00:52:00
  TRACK 47 AUDIO
    TITLE "0:"
    INDEX 01 00:53:62
  TRACK 48 AUDIO
    TITLE "10:cjc113_1736"
    INDEX 01 00:54:09
  TRACK 49 AUDIO
    TITLE "0:"
    INDEX 01 00:57:05
  TRACK 50 AUDIO
    TITLE "8:cjc113_1737"
    INDEX 01 00:57:52
  TRACK 51 AUDIO
    TITLE "0:"
    INDEX 01 00:59:06
  TRACK 52 AUDIO
    TITLE "9:cjc113_1738"
    INDEX 01 00:59:28
  TRACK 53 AUDIO
    TITLE "0:"
    INDEX 01 01:00:53
  TRACK 54 AUDIO
    TITLE "10:cjc113_1739"
    INDEX 01 01:01:01
  TRACK 55 AUDIO
    TITLE "0:"
    INDEX 01 01:04:09
  TRACK 56 AUDIO
    TITLE "8:cjc113_1740"
    INDEX 01 01:04:56
  TRACK 57 AUDIO
    TITLE "0:"
    INDEX 01 01:05:71
  TRACK 58 AUDIO
    TITLE "9:cjc113_1741"
    INDEX 01 01:06:20
  TRACK 59 AUDIO
    TITLE "0:"
    INDEX 01 01:07:72
  TRACK 60 AUDIO
    TITLE "10:cjc113_1742"
    INDEX 01 01:08:19
  TRACK 61 AUDIO
    TITLE "0:"
    INDEX 01 01:11:09
  TRACK 62 AUDIO
    TITLE "8:cjc113_1743"
    INDEX 01 01:11:56
  TRACK 63 AUDIO
    TITLE "0:"
    INDEX 01 01:12:64
  TRACK 64 AUDIO
    TITLE "9:cjc113_1744"
    INDEX 01 01:13:12
  TRACK 65 AUDIO
    TITLE "0:"
    INDEX 01 01:14:65
  TRACK 66 AUDIO
    TITLE "10:cjc113_1745"
    INDEX 01 01:15:11
  TRACK 67 AUDIO
    TITLE "0:"
    INDEX 01 01:17:02
  TRACK 68 AUDIO
    TITLE "8:cjc113_1746"
    INDEX 01 01:17:51
  TRACK 69 AUDIO
    TITLE "0:"
    INDEX 01 01:18:68
  TRACK 70 AUDIO
    TITLE "9:cjc113_1747"
    INDEX 01 01:19:17
  TRACK 71 AUDIO
    TITLE "0:"
    INDEX 01 01:20:48
  TRACK 72 AUDIO
    TITLE "10:cjc113_1748"
    INDEX 01 01:20:69
  TRACK 73 AUDIO
    TITLE "0:"
    INDEX 01 01:23:18
  TRACK 74 AUDIO
    TITLE "8:cjc113_1749"
    INDEX 01 01:23:67
  TRACK 75 AUDIO
    TITLE "0:"
    INDEX 01 01:25:02
  TRACK 76 AUDIO
    TITLE "9:cjc113_1750"
    INDEX 01 01:25:25
  TRACK 77 AUDIO
    TITLE "0:"
    INDEX 01 01:26:64
  TRACK 78 AUDIO
    TITLE "10:cjc113_1751"
    INDEX 01 01:27:14
  TRACK 79 AUDIO
    TITLE "0:"
    INDEX 01 01:29:35
